<?xml version="1.0" encoding="UTF-8"?>
<svg xmlns="http://www.w3.org/2000/svg" version="1.1" width="1200" height="1200" viewBox="0 0 1200 1200"><rect x="0" y="0" width="1200" height="1200" fill="#ffffff"/><g transform="scale(36.364)"><g transform="translate(0,0)"><path fill-rule="evenodd" d="M9 0L9 1L11 1L11 2L9 2L9 3L8 3L8 5L9 5L9 6L8 6L8 7L9 7L9 9L10 9L10 10L8 10L8 11L7 11L7 10L5 10L5 11L4 11L4 9L3 9L3 10L2 10L2 8L0 8L0 12L1 12L1 10L2 10L2 11L3 11L3 12L2 12L2 13L0 13L0 14L1 14L1 15L2 15L2 18L0 18L0 20L1 20L1 21L0 21L0 25L7 25L7 24L9 24L9 25L8 25L8 28L10 28L10 27L11 27L11 29L12 29L12 30L10 30L10 29L9 29L9 31L8 31L8 33L9 33L9 31L12 31L12 33L13 33L13 32L14 32L14 33L15 33L15 32L14 32L14 31L12 31L12 30L15 30L15 31L16 31L16 29L19 29L19 31L18 31L18 30L17 30L17 31L18 31L18 32L16 32L16 33L19 33L19 31L20 31L20 32L21 32L21 31L22 31L22 30L24 30L24 29L25 29L25 32L24 32L24 33L26 33L26 32L28 32L28 31L29 31L29 33L30 33L30 32L31 32L31 33L32 33L32 32L31 32L31 31L33 31L33 27L32 27L32 26L33 26L33 25L32 25L32 24L31 24L31 23L32 23L32 20L31 20L31 19L30 19L30 20L31 20L31 23L30 23L30 21L29 21L29 20L28 20L28 21L27 21L27 22L25 22L25 24L24 24L24 23L23 23L23 22L24 22L24 21L26 21L26 20L27 20L27 19L29 19L29 18L30 18L30 17L29 17L29 14L28 14L28 11L27 11L27 12L25 12L25 13L26 13L26 14L25 14L25 15L24 15L24 16L22 16L22 19L24 19L24 21L23 21L23 20L22 20L22 22L21 22L21 23L22 23L22 24L23 24L23 28L22 28L22 30L21 30L21 31L20 31L20 29L21 29L21 28L20 28L20 27L22 27L22 26L21 26L21 25L20 25L20 24L19 24L19 23L18 23L18 25L17 25L17 26L18 26L18 25L19 25L19 26L20 26L20 27L19 27L19 28L17 28L17 27L16 27L16 24L17 24L17 23L16 23L16 22L17 22L17 21L18 21L18 22L20 22L20 21L21 21L21 20L20 20L20 19L21 19L21 17L20 17L20 15L21 15L21 10L22 10L22 12L23 12L23 14L24 14L24 12L23 12L23 10L24 10L24 11L25 11L25 10L26 10L26 9L25 9L25 6L24 6L24 8L23 8L23 6L22 6L22 5L24 5L24 4L25 4L25 3L24 3L24 2L25 2L25 1L24 1L24 2L23 2L23 0L21 0L21 1L20 1L20 2L21 2L21 3L20 3L20 4L19 4L19 5L21 5L21 6L20 6L20 7L19 7L19 6L18 6L18 4L17 4L17 6L16 6L16 8L14 8L14 7L15 7L15 5L14 5L14 4L16 4L16 2L14 2L14 0L13 0L13 1L12 1L12 0ZM16 0L16 1L17 1L17 0ZM18 0L18 1L19 1L19 0ZM12 2L12 4L11 4L11 7L10 7L10 6L9 6L9 7L10 7L10 8L11 8L11 10L10 10L10 11L9 11L9 12L10 12L10 11L11 11L11 10L13 10L13 11L12 11L12 12L11 12L11 14L10 14L10 13L6 13L6 12L7 12L7 11L5 11L5 13L6 13L6 14L4 14L4 12L3 12L3 13L2 13L2 14L3 14L3 15L6 15L6 16L7 16L7 15L6 15L6 14L9 14L9 15L10 15L10 16L11 16L11 17L9 17L9 18L8 18L8 19L6 19L6 18L7 18L7 17L5 17L5 16L4 16L4 17L3 17L3 18L2 18L2 19L1 19L1 20L2 20L2 19L3 19L3 20L5 20L5 19L6 19L6 20L7 20L7 21L6 21L6 22L5 22L5 24L7 24L7 23L6 23L6 22L8 22L8 23L11 23L11 24L10 24L10 25L9 25L9 27L10 27L10 25L11 25L11 26L13 26L13 27L12 27L12 29L15 29L15 28L16 28L16 27L15 27L15 23L14 23L14 25L11 25L11 24L12 24L12 23L13 23L13 22L12 22L12 21L14 21L14 22L15 22L15 21L16 21L16 20L18 20L18 21L20 21L20 20L19 20L19 19L17 19L17 17L16 17L16 15L15 15L15 17L14 17L14 16L13 16L13 17L12 17L12 15L13 15L13 14L12 14L12 13L13 13L13 12L14 12L14 11L15 11L15 12L16 12L16 14L17 14L17 16L18 16L18 17L19 17L19 15L20 15L20 14L19 14L19 11L20 11L20 10L21 10L21 9L23 9L23 8L22 8L22 6L21 6L21 7L20 7L20 8L19 8L19 7L18 7L18 6L17 6L17 8L18 8L18 9L17 9L17 11L15 11L15 10L14 10L14 8L13 8L13 9L12 9L12 6L13 6L13 7L14 7L14 6L13 6L13 5L12 5L12 4L14 4L14 2ZM9 3L9 5L10 5L10 3ZM22 3L22 4L23 4L23 3ZM5 8L5 9L8 9L8 8ZM20 8L20 9L19 9L19 10L20 10L20 9L21 9L21 8ZM28 8L28 9L27 9L27 10L29 10L29 11L30 11L30 12L31 12L31 15L30 15L30 16L31 16L31 18L32 18L32 19L33 19L33 17L32 17L32 16L33 16L33 15L32 15L32 14L33 14L33 12L31 12L31 11L32 11L32 9L30 9L30 8ZM24 9L24 10L25 10L25 9ZM29 9L29 10L30 10L30 11L31 11L31 10L30 10L30 9ZM25 15L25 16L26 16L26 17L24 17L24 19L25 19L25 18L26 18L26 17L28 17L28 18L29 18L29 17L28 17L28 15ZM31 15L31 16L32 16L32 15ZM15 17L15 18L12 18L12 19L10 19L10 18L9 18L9 19L10 19L10 21L8 21L8 22L10 22L10 21L12 21L12 19L14 19L14 20L15 20L15 19L16 19L16 17ZM3 18L3 19L5 19L5 18ZM3 21L3 22L1 22L1 24L2 24L2 23L3 23L3 24L4 24L4 21ZM27 22L27 23L28 23L28 24L29 24L29 22ZM30 24L30 25L29 25L29 27L31 27L31 28L29 28L29 29L30 29L30 30L31 30L31 28L32 28L32 27L31 27L31 26L32 26L32 25L31 25L31 24ZM25 25L25 28L28 28L28 25ZM30 25L30 26L31 26L31 25ZM26 26L26 27L27 27L27 26ZM23 28L23 29L24 29L24 28ZM26 29L26 31L28 31L28 29ZM22 32L22 33L23 33L23 32ZM0 0L0 7L7 7L7 0ZM1 1L1 6L6 6L6 1ZM2 2L2 5L5 5L5 2ZM26 0L26 7L33 7L33 0ZM27 1L27 6L32 6L32 1ZM28 2L28 5L31 5L31 2ZM0 26L0 33L7 33L7 26ZM1 27L1 32L6 32L6 27ZM2 28L2 31L5 31L5 28Z" fill="#000000"/></g></g></svg>
